<?xml version="1.0" standalone="no"?><!DOCTYPE svg PUBLIC "-//W3C//DTD SVG 1.1//EN" "http://www.w3.org/Graphics/SVG/1.1/DTD/svg11.dtd"><svg t="1649485714791" class="icon" viewBox="0 0 1024 1024" version="1.1" xmlns="http://www.w3.org/2000/svg" p-id="3121" xmlns:xlink="http://www.w3.org/1999/xlink" width="32" height="32"><defs><style type="text/css"></style></defs><path d="M420.470925 315.434175l-242.773735 544.396555c-30.319386 68.028312 5.802308 123.678637 80.264581 123.678637h524.689764c74.486568 0 110.288385-55.516706 79.572192-123.374957l-246.587953-544.700235" fill="#A3F1FF" p-id="3122"></path><path d="M850.392364 851.526101l-239.522337-529.091096h-29.189697l171.919177 485.377409c25.561736 58.889576-4.231271 107.065331-66.218381 107.065331H250.782782c-37.368805 0-63.104651-17.581033-72.138111-44.466813-15.293312 57.039154 19.617711 100.955294 84.80763 100.955295H773.099795c72.35676-0.004049 107.126067-53.929474 77.292569-119.840126z" fill="#8ED2DE" opacity=".71" p-id="3123"></path><path d="M401.978853 307.186233L159.205118 851.586837c-17.552689 39.381189-16.722631 77.24398 2.344408 106.619934 19.06299 29.371905 53.305918 45.547913 96.412245 45.547913h524.689764c43.13872 0 77.320912-16.159811 96.250283-45.507422 18.929371-29.34761 19.556976-67.153714 1.765392-106.453922L634.083306 307.085007l-36.882917 16.698336 246.587953 544.708333c11.916393 26.335107 12.305103 50.414887 1.093247 67.805614s-33.315692 26.966761-62.221955 26.966761H257.961771c-28.926508 0-51.103227-9.624623-62.444653-27.10038-11.345475-17.475757-11.106581-41.660812 0.672144-68.08095L438.962997 323.682117l-36.984144-16.495884z" fill="#6E6E96" p-id="3124"></path><path d="M330.225403 497.556991h114.965053v40.490633H330.225403zM259.354649 683.830098h145.345175v40.490632H259.354649z" fill="#6E6E96" p-id="3125"></path><path d="M615.643872 40.077628v275.356547H420.470925V40.077628" fill="#F0F0FF" p-id="3126"></path><path d="M595.398556 40.077628v275.356547a20.245316 20.245316 0 0 1 20.245316-20.245316H420.470925a20.245316 20.245316 0 0 1 20.245316 20.245316V40.077628h-40.490632v275.356547a20.245316 20.245316 0 0 0 20.245316 20.245316h195.172947a20.245316 20.245316 0 0 0 20.245317-20.245316V40.077628h-40.490633z" fill="#6E6E96" p-id="3127"></path><path d="M485.255937 126.849054h65.210164v168.339805H485.255937z" fill="#FFFFFF" opacity=".7" p-id="3128"></path><path d="M550.466101 126.849054h44.932455v168.339805h-44.932455z" fill="#6E6E96" opacity=".15" p-id="3129"></path><path d="M383.10212 36.235067h264.541499v70.36867H383.10212z" fill="#EBD37A" p-id="3130"></path><path d="M435.739943 42.49087h76.932202v58.711417h-76.932202z" fill="#FFFFFF" opacity=".71" p-id="3131"></path><path d="M647.643619 86.358421H383.10212a20.245316 20.245316 0 0 1 20.245317 20.245316V36.235067a20.245316 20.245316 0 0 1-20.245317 20.245316h264.541499a20.245316 20.245316 0 0 1-20.245316-20.245316v70.36867a20.245316 20.245316 0 0 1 20.245316-20.245316z m0-70.36867H383.10212a20.245316 20.245316 0 0 0-20.245316 20.245316v70.36867a20.245316 20.245316 0 0 0 20.245316 20.245317h264.541499a20.245316 20.245316 0 0 0 20.245316-20.245317V36.235067a20.245316 20.245316 0 0 0-20.245316-20.245316z" fill="#6E6E96" p-id="3132"></path><path d="M552.490633 56.480383h83.398556v29.878038h-83.398556z" fill="#6E6E96" opacity=".15" p-id="3133"></path><path d="M439.331462 918.712208l92.913854-583.032717H428.018379L196.181164 895.14666s-17.803731 36.421324 243.150298 23.565548z" fill="#FFFFFF" opacity=".34" p-id="3134"></path><path d="M196.185213 868.074623l267.226028-493.742774 76.932202-38.652358h-106.733308z" fill="#FFFFFF" opacity=".7" p-id="3135"></path><path d="M621.324708 722.551289m-26.318911 0a26.318911 26.318911 0 1 0 52.637822 0 26.318911 26.318911 0 1 0-52.637822 0Z" fill="#FFFFFF" opacity=".55" p-id="3136"></path><path d="M495.803747 852.121314m-14.171721 0a14.171721 14.171721 0 1 0 28.343442 0 14.171721 14.171721 0 1 0-28.343442 0Z" fill="#FFFFFF" p-id="3137"></path><path d="M477.582962 603.103923m-20.245316 0a20.245316 20.245316 0 1 0 40.490633 0 20.245316 20.245316 0 1 0-40.490633 0Z" fill="#FFFFFF" p-id="3138"></path></svg>